<?xml version="1.0" encoding="iso-8859-1"?>
<!-- Uploaded to: SVG Repo, www.svgrepo.com, Generator: SVG Repo Mixer Tools -->
<svg version="1.1" id="Layer_1" xmlns="http://www.w3.org/2000/svg" xmlns:xlink="http://www.w3.org/1999/xlink" 
	 viewBox="0 0 512.4 512.4" xml:space="preserve">
<polyline style="fill:#E04F5F;" points="49.464,355.072 49.464,36.832 462.936,36.832 462.936,355.072 "/>
<rect x="159.208" y="426.656" width="193.92" height="16"/>
<rect x="144.22" y="384.904" transform="matrix(-0.967 -0.2549 0.2549 -0.967 201.0487 921.3369)" width="32.001" height="125.476"/>
<rect x="289.506" y="431.661" transform="matrix(-0.255 -0.9669 0.9669 -0.255 9.2046 902.4128)" width="125.467" height="31.999"/>
<rect x="240.2" width="32" height="42"/>
<g>
	<path style="fill:#FFFFFF;" d="M144.408,234.096h-14.96v-56.4c-5.472,5.104-11.92,8.896-19.344,11.344v-13.584
		c3.904-1.28,8.16-3.696,12.736-7.264c4.576-3.584,7.712-7.728,9.424-12.496h12.144V234.096z"/>
	<path style="fill:#FFFFFF;" d="M187.128,222.864V202.56H166.68v-14h20.448v-20.304h13.632v20.304h20.512v14H200.76v20.304H187.128z
		"/>
	<path style="fill:#FFFFFF;" d="M281.016,220.192v13.904h-52.448c0.56-5.248,2.272-10.24,5.104-14.944s8.448-10.96,16.832-18.72
		c6.752-6.304,10.896-10.544,12.4-12.784c2.064-3.088,3.088-6.144,3.088-9.168c0-3.328-0.896-5.888-2.688-7.68
		s-4.272-2.688-7.44-2.688c-3.104,0-5.616,0.944-7.456,2.816c-1.84,1.888-2.912,5.008-3.184,9.376l-14.928-1.488
		c0.896-8.24,3.68-14.16,8.352-17.728c4.688-3.6,10.544-5.392,17.584-5.392c7.696,0,13.76,2.08,18.176,6.24
		c4.384,4.16,6.592,9.328,6.592,15.504c0,3.52-0.624,6.864-1.888,10.048c-1.248,3.168-3.248,6.496-5.984,9.984
		c-1.808,2.32-5.072,5.632-9.792,9.952c-4.736,4.336-7.712,7.216-8.992,8.624c-1.248,1.424-2.288,2.816-3.056,4.16h29.728V220.192z"
		/>
	<path style="fill:#FFFFFF;" d="M291.032,190.64v-13.744h54.592v13.744H291.032z M291.032,214.288v-13.792h54.592v13.792
		L291.032,214.288L291.032,214.288z"/>
	<path style="fill:#FFFFFF;" d="M354.296,213.376l14.496-1.744c0.448,3.68,1.696,6.512,3.712,8.464
		c2.032,1.952,4.48,2.928,7.36,2.928c3.072,0,5.68-1.168,7.792-3.52s3.168-5.504,3.168-9.488c0-3.76-1.008-6.736-3.024-8.944
		c-2.032-2.208-4.496-3.312-7.408-3.312c-1.92,0-4.224,0.368-6.88,1.12l1.664-12.208c4.048,0.112,7.12-0.768,9.264-2.624
		c2.128-1.872,3.184-4.336,3.184-7.44c0-2.624-0.784-4.72-2.336-6.288s-3.648-2.336-6.224-2.336c-2.56,0-4.752,0.896-6.56,2.656
		c-1.808,1.776-2.912,4.368-3.296,7.776l-13.792-2.336c0.96-4.72,2.4-8.496,4.336-11.312c1.936-2.832,4.624-5.04,8.096-6.656
		c3.472-1.632,7.344-2.432,11.648-2.432c7.344,0,13.232,2.336,17.664,7.024c3.664,3.84,5.504,8.176,5.504,12.992
		c0,6.864-3.744,12.336-11.248,16.4c4.48,0.96,8.064,3.104,10.736,6.432c2.688,3.344,4.032,7.376,4.032,12.096
		c0,6.864-2.512,12.704-7.52,17.536s-11.232,7.232-18.704,7.232c-7.056,0-12.928-2.032-17.568-6.096
		C357.752,225.264,355.048,219.936,354.296,213.376z"/>
</g>
<rect x="0.2" y="346.816" style="fill:#25B6D2;" width="512" height="48"/>
</svg>