<?xml version="1.0" encoding="iso-8859-1"?>
<!-- Uploaded to: SVG Repo, www.svgrepo.com, Generator: SVG Repo Mixer Tools -->
<svg version="1.1" id="Layer_1" xmlns="http://www.w3.org/2000/svg" xmlns:xlink="http://www.w3.org/1999/xlink" 
	 viewBox="0 0 448.8 448.8" xml:space="preserve">
<g>
	<path style="fill:#CC9966;" d="M224.4,283.3c-0.1,0-0.7,0-0.8,0L115,230.7v94.6h88v6h-88v18h218V230.7L224.4,283.3z"/>
	<path style="fill:#CC9966;" d="M328,344.3H120v-8h88v-16h-88v-81.6l100.8,48.8c0.8,0.8,2.4,0.8,3.2,0.8c1.6,0,2.4,0,3.2-0.8
		L328,238.7V344.3z M232,336.3h56v-16h-56V336.3z"/>
</g>
<g>
	<polygon style="fill:#E94545;" points="85.5,347.3 58.5,347.3 52,373.3 92,373.3 	"/>
	<path style="fill:#E94545;" d="M72,333.3c7.2,0,13-5.8,13-13s-5.8-13-13-13s-13,5.8-13,13S64.8,333.3,72,333.3z"/>
</g>
<rect x="232" y="320.3" style="fill:#42210B;" width="56" height="16"/>
<path style="fill:#B37D4D;" d="M119.3,234.2l-1.7,2.9l99.8,63.1c4.1,2.5,9,2.5,12.3,0l100.9-63l-2-5.4L119.3,234.2z"/>
<path style="fill:#875426;" d="M224,75.5L14.9,176.3l58.9,28.5l130.7-29.1l0.5-3.4c1.3-8.8,8.8-14.9,18.3-14.9c10.5,0,19,8.5,19,19
	c0,10.8-8.2,19-19,19c-7,0-13.2-3.8-16.3-10l-1.7-3.5L82.6,209.1L224,277l209.1-100.7L224,75.5z"/>
<path style="fill:#996632;" d="M375.9,168.6l-144-82.4l-15.6-8.9L8,177l58.3,24l138.4-28.7c1.6-11.2,9-13.7,21-13.7
	c13.6,0,16,3.5,16,16.3c0,13.6-4.1,19-17.7,19c-8.8,0-15.7-3.7-19.7-11.7L83,210.6l135.3,65c0,0,22.8-13.9,23.1-14.1l134.5-76.9
	C382.3,181.4,382.3,171.8,375.9,168.6z"/>
<path style="fill:#42210B;" d="M444,169.1l-216-104c-2.4-0.8-4.8-0.8-7.2,0l-216,104c-3.2,1.6-4.8,4-4.8,7.2s1.6,5.6,4.8,7.2
	L64,212.3v85.6c-9.6,3.2-16,12-16,23.2c0,6.4,2.4,12,6.4,16c-3.2,0.8-5.6,2.4-6.4,5.6l-8,32c0,2.4,0,4.8,1.6,6.4
	c1.6,2.4,4,3.2,6.4,3.2h48c2.4,0,4.8-0.8,6.4-4c1.6-2.4,2.4-4.8,1.6-7.2l-4.8-19.2L96,341.1c-0.8-2.4-3.2-4.8-6.4-5.6
	c4-4,6.4-9.6,6.4-16c0-10.4-6.4-19.2-16-22.4v-77.6l24,12v120.8c0,0.8,0,0.8,0,1.6c0.8,4,4,6.4,8,6.4h224c4,0,8-4,8-8l-0.1-120.7
	L444,183.5c3.2-1.6,4.8-4,4.8-7.2S446.4,170.7,444,169.1z M72,312.3c4.8,0,8,4,8,8s-3.2,8-8,8s-8-4-8-8S67.2,312.3,72,312.3z
	 M81.6,352.3l4,16H58.4l4-16H81.6z M328,344.3H120v-8h88v-16h-88v-81.6l100.8,48.8c0.8,0.8,2.4,0.8,3.2,0.8c1.6,0,2-0.2,3.2-0.8
	L328,238.7V344.3z M224,271.5L98.4,210.7l104.8-23.2c4,7.2,12,12.8,20.8,12.8c13.6,0,24-10.4,24-24c0-12.8-10.4-24-24-24
	c-12,0-21.6,8-24,19.2l-125.6,28l-48-23.2L224,81.1l197.6,95.2L224,271.5z M216,176.3c0-4,4-8,8-8s8,4,8,8s-4,8-8,8
	c-3.2,0-5.6-1.6-7.2-4.8L216,176.3z"/>
</svg>