<?xml version="1.0" encoding="iso-8859-1"?>
<!-- Uploaded to: SVG Repo, www.svgrepo.com, Generator: SVG Repo Mixer Tools -->
<svg version="1.1" id="Layer_1" xmlns="http://www.w3.org/2000/svg" xmlns:xlink="http://www.w3.org/1999/xlink" 
	 viewBox="0 0 512 512" xml:space="preserve">
<circle style="fill:#EA8953;" cx="256" cy="256" r="256"/>
<path style="opacity:0.1;enable-background:new    ;" d="M329.168,130.549l-73.653-21.173c-0.267-0.053-0.533-0.053-0.853,0
	l-73.6,21.173c-1.12,0.32-1.387,1.547-0.853,2.347c-0.533,0.8-0.267,2.08,0.853,2.4l32.053,9.173
	c-2.667,5.013-4.533,10.56-5.28,16.427c-0.32,2.667,0.693,5.28,2.613,6.987c-0.053,0.373-0.16,0.747-0.267,1.12
	c-2.187-1.387-4.48-1.867-6.56-1.173c-5.013,1.76-6.773,9.867-3.893,18.027c2.347,6.72,7.04,11.36,11.467,11.84
	c0.213,1.067,0.48,2.08,0.747,3.093l-0.267,1.493h0.693c2.08,7.573,5.173,14.827,9.013,21.227v16.8l-0.693-0.373l-7.68,2.987
	l-27.573,10.773l-8.48,3.307c-5.76,2.4-10.773,6.187-14.613,10.987c-1.227-0.107-2.4-0.213-3.68-0.267v5.92
	c-0.747,1.387-1.44,2.827-2.027,4.32l-1.227,3.573l-8.587-1.013l1.227,22.507l-1.227,3.627h1.44l0.96,17.28
	c-1.493,3.307-2.4,7.52-2.4,12.16c0,6.08,1.547,11.413,3.84,14.933l2.187,39.627l120.683,120.677
	c115.659-7.829,210.251-92.411,233.157-203.264L330.219,131.6C330.091,131.131,329.755,130.715,329.168,130.549z"/>
<rect x="220.693" y="213.76" style="fill:#F6C358;" width="68.88" height="44.283"/>
<polygon style="fill:#E1E6E9;" points="289.515,239.936 255.109,257.531 220.704,239.936 212.987,242.939 253.36,306.629 
	255.109,306.629 256.859,306.629 297.232,242.939 "/>
<polygon style="fill:#64798A;" points="185.456,253.675 239.984,306.629 253.36,306.629 212.987,242.939 "/>
<path style="fill:#3A556A;" d="M176.949,256.992c-9.36,3.899-16.709,11.472-20.32,20.955l-9.792,28.688h93.147l-54.528-52.955
	L176.949,256.992z"/>
<polygon style="fill:#FFFFFF;" points="220.704,239.936 253.36,256.64 234.048,276.165 212.987,242.939 "/>
<polygon style="fill:#64798A;" points="324.763,253.675 270.235,306.629 256.859,306.629 297.232,242.939 "/>
<path style="fill:#3A556A;" d="M333.269,256.992c9.365,3.899,16.709,11.472,20.32,20.955l9.792,28.688h-93.147l54.528-52.955
	L333.269,256.992z"/>
<polygon style="fill:#FFFFFF;" points="289.525,239.92 256.864,256.629 276.181,276.149 297.243,242.928 "/>
<g>
	
		<ellipse transform="matrix(-0.3308 0.9437 -0.9437 -0.3308 573.5022 -41.2993)" style="fill:#F6C358;" cx="301.394" cy="182.692" rx="15.707" ry="9.643"/>
	
		<ellipse transform="matrix(-0.9437 0.3308 -0.3308 -0.9437 466.3085 286.0171)" style="fill:#F6C358;" cx="208.815" cy="182.689" rx="9.643" ry="15.707"/>
</g>
<path style="fill:#FCD462;" d="M300.997,180.347c0,31.653-20.544,66.795-45.888,66.795s-45.888-35.136-45.888-66.795
	c0-31.653,20.544-47.84,45.888-47.84S300.997,148.688,300.997,180.347z"/>
<path style="fill:#64798A;" d="M255.104,119.381c-24.229,0-44.235,18.085-47.253,41.499c-0.459,3.568,1.504,7.008,4.811,8.432
	c14.389,6.213,28.251,11.248,40.875,13.552c0.933,0.171,1.888,0.165,2.827-0.005c12.992-2.395,26.816-7.088,41.253-13.493
	c3.269-1.451,5.2-4.859,4.747-8.405C299.387,137.509,279.365,119.381,255.104,119.381z"/>
<path style="fill:#2F4859;" d="M329.173,132.315l-73.637-21.136c-0.277-0.08-0.571-0.08-0.848,0l-73.637,21.136
	c-1.488,0.427-1.488,2.533,0,2.96l73.637,21.136c0.277,0.08,0.571,0.08,0.848,0l73.637-21.136
	C330.661,134.848,330.661,132.741,329.173,132.315z"/>
<path style="fill:#3A556A;" d="M329.173,130.528l-73.637-21.136c-0.277-0.08-0.571-0.08-0.848,0l-73.637,21.136
	c-1.488,0.427-1.488,2.533,0,2.96l73.637,21.136c0.277,0.08,0.571,0.08,0.848,0l73.637-21.136
	C330.661,133.061,330.661,130.955,329.173,130.528z"/>
<path style="fill:#E56353;" d="M221.728,176.283c-1.509,0-2.736-1.221-2.736-2.736v-28.389c0-1.125,0.693-2.139,1.744-2.549
	l32.565-12.651c1.403-0.549,2.992,0.149,3.536,1.557c0.549,1.408-0.149,2.992-1.557,3.541l-30.821,11.973v26.517
	C224.459,175.061,223.237,176.283,221.728,176.283z"/>
<ellipse style="fill:#2F4859;" cx="255.109" cy="132.011" rx="7.045" ry="4.555"/>
<polygon style="fill:#E56353;" points="231.781,202.299 211.669,202.299 217.408,170.917 226.043,170.917 "/>
<circle style="fill:#D15241;" cx="221.728" cy="169.301" r="7.157"/>
<path style="fill:#FFFFFF;" d="M333.077,258.709v25.669l-77.968,8.997C255.109,293.376,272.475,265.851,333.077,258.709z"/>
<path style="fill:#EBF0F3;" d="M351.579,267.707v25.669h-96.469C255.109,293.376,287.147,270.88,351.579,267.707z"/>
<path style="fill:#FFFFFF;" d="M177.141,258.709v25.669l77.968,8.997C255.109,293.376,237.744,265.851,177.141,258.709z"/>
<path style="fill:#EBF0F3;" d="M158.64,267.707v25.669h96.469C255.109,293.376,223.072,270.88,158.64,267.707z"/>
<polygon style="fill:#2D93BA;" points="357.397,390.629 255.109,402.667 255.109,293.259 363.381,280.523 "/>
<polygon style="fill:#27A2DB;" points="152.821,390.629 255.109,402.667 255.109,293.259 146.837,280.523 "/>
<g>
	<ellipse style="fill:#FCD462;" cx="354.88" cy="336.107" rx="10.288" ry="19.317"/>
	<ellipse style="fill:#FCD462;" cx="157.131" cy="336.107" rx="10.288" ry="19.317"/>
</g>
</svg>