<?xml version="1.0" encoding="iso-8859-1"?>
<!-- Uploaded to: SVG Repo, www.svgrepo.com, Generator: SVG Repo Mixer Tools -->
<svg height="800px" width="800px" version="1.1" id="Layer_1" xmlns="http://www.w3.org/2000/svg" xmlns:xlink="http://www.w3.org/1999/xlink" 
	 viewBox="0 0 512 512" xml:space="preserve">
<g>
	<path style="fill:#FFE7E5;" d="M103.996,358.797c-33.527,0-60.8-27.273-60.8-60.8s27.273-60.8,60.8-60.8s60.8,27.273,60.8,60.8
		S137.523,358.797,103.996,358.797z"/>
	<path style="fill:#FFE7E5;" d="M256,358.797c-33.527,0-60.8-27.273-60.8-60.8s27.273-60.8,60.8-60.8s60.8,27.273,60.8,60.8
		S289.527,358.797,256,358.797z"/>
</g>
<path style="fill:#FF877F;" d="M12.8,449.993v-30.404c0-33.527,27.273-60.8,60.8-60.8h60.8c17.57,0,33.766,7.441,45.602,20.949
	c11.827-13.508,28.023-20.949,45.594-20.949h60.8c17.57,0,33.766,7.441,45.602,20.949c11.827-13.508,28.023-20.949,45.594-20.949
	h60.8c33.527,0,60.8,27.273,60.8,60.8v30.404L12.8,449.993L12.8,449.993z"/>
<path style="fill:#D3D7DF;" d="M466.739,317.999l1.391-14.054c0.094-0.973,0.222-1.946,0.358-2.91
	c0.137-0.998,0.307-1.997,0.307-3.029c0-33.527-27.273-60.8-60.8-60.8s-60.8,27.273-60.8,60.8c0,1.033,0.179,2.031,0.307,3.029
	c0.137,0.964,0.264,1.937,0.358,2.91l1.391,14.054h-34.517l1.391-14.054c0.094-0.973,0.222-1.946,0.358-2.91
	c0.137-0.998,0.307-1.997,0.307-3.029c0-33.527-27.273-60.8-60.8-60.8s-60.8,27.273-60.8,60.8c0,1.033,0.179,2.031,0.307,3.029
	c0.137,0.964,0.265,1.937,0.358,2.91l1.391,14.054h-34.517l1.391-14.054c0.094-0.973,0.222-1.946,0.358-2.91
	c0.137-0.998,0.307-1.997,0.307-3.029c0-33.527-27.273-60.8-60.8-60.8s-60.8,27.273-60.8,60.8c0,1.033,0.179,2.031,0.307,3.029
	c0.137,0.964,0.265,1.937,0.358,2.91l1.391,14.054H12.8v-256h486.4v256H466.739z"/>
<path style="fill:#FFE7E5;" d="M407.996,358.797c-33.527,0-60.8-27.273-60.8-60.8s27.273-60.8,60.8-60.8s60.8,27.273,60.8,60.8
	S441.523,358.797,407.996,358.797z"/>
<path style="fill:#573A32;" d="M486.4,49.199H25.6c-14.14,0-25.6,11.46-25.6,25.6v230.4c0,14.14,11.46,25.6,25.6,25.6h12.86
	c3.499,6.955,7.834,13.414,13.252,18.893C21.854,359.078,0,386.684,0,419.597v30.404c0,7.074,5.726,12.8,12.8,12.8h486.4
	c7.074,0,12.8-5.726,12.8-12.8v-30.404c0-32.913-21.854-60.518-51.712-69.905c5.419-5.478,9.754-11.947,13.252-18.893h12.86
	c14.14,0,25.6-11.46,25.6-25.6v-230.4C512,60.659,500.54,49.199,486.4,49.199z M486.4,419.597v17.604H25.6v-17.604
	c0-26.462,21.538-48,48-48h60.8c13.824,0,26.598,5.888,35.977,16.589c4.847,5.572,14.404,5.572,19.251,0
	c9.378-10.701,22.153-16.589,35.977-16.589h60.8c13.824,0,26.598,5.888,35.977,16.589c4.847,5.572,14.404,5.572,19.251,0
	c9.378-10.701,22.153-16.589,35.977-16.589h60.8C464.862,371.597,486.4,393.135,486.4,419.597z M55.996,297.997
	c0-26.462,21.538-48,48-48s48,21.538,48,48s-21.538,48-48,48S55.996,324.459,55.996,297.997z M156.365,349.598
	c5.385-5.461,9.694-11.878,13.167-18.799h20.924c3.482,6.912,7.791,13.338,13.167,18.799c-8.508,2.722-16.546,6.861-23.629,12.518
	C172.919,356.45,164.873,352.32,156.365,349.598z M208,297.997c0-26.462,21.538-48,48-48s48,21.538,48,48s-21.538,48-48,48
	S208,324.459,208,297.997z M308.369,349.598c5.385-5.461,9.694-11.878,13.167-18.799h20.924c3.482,6.912,7.791,13.338,13.167,18.799
	c-8.508,2.722-16.546,6.861-23.629,12.518C324.915,356.45,316.877,352.32,308.369,349.598z M359.996,297.997
	c0-26.462,21.538-48,48-48s48,21.538,48,48s-21.538,48-48,48S359.996,324.459,359.996,297.997z M486.4,305.199h-5.53
	c0.239-2.406,0.725-4.736,0.725-7.202c0-40.585-33.015-73.6-73.6-73.6s-73.6,33.015-73.6,73.6c0,2.466,0.495,4.796,0.725,7.202
	h-6.246c0.239-2.406,0.725-4.736,0.725-7.202c0-40.585-33.015-73.6-73.6-73.6s-73.6,33.015-73.6,73.6
	c0,2.466,0.486,4.796,0.725,7.202h-6.255c0.239-2.406,0.725-4.736,0.725-7.202c0-40.585-33.015-73.6-73.6-73.6
	s-73.6,33.015-73.6,73.6c0,2.466,0.495,4.796,0.725,7.202H25.6v-230.4h460.8V305.199z"/>
</svg>