<?xml version="1.0" encoding="iso-8859-1"?>
<!-- Uploaded to: SVG Repo, www.svgrepo.com, Generator: SVG Repo Mixer Tools -->
<svg height="800px" width="800px" version="1.1" id="Layer_1" xmlns="http://www.w3.org/2000/svg" xmlns:xlink="http://www.w3.org/1999/xlink" 
	 viewBox="0 0 512 512" xml:space="preserve">
<polygon style="fill:#CFF09E;" points="423.512,15.398 423.512,239.882 256,378.384 88.488,239.882 88.488,15.398 "/>
<path style="fill:#507C5C;" d="M496.456,278.025c-8.504,0-15.398,6.895-15.398,15.398v166.106L331.543,335.905l101.781-84.155
	c0.011-0.009,0.02-0.018,0.031-0.028l72.91-60.285c3.537-2.926,5.585-7.277,5.585-11.867v-52.847
	c0-8.503-6.894-15.398-15.398-15.398H438.91V15.398C438.91,6.895,432.016,0,423.512,0H88.488C79.984,0,73.09,6.895,73.09,15.398
	v95.928H15.549c-8.504,0-15.398,6.895-15.398,15.398v4.279c0,0.031-0.005,0.06-0.005,0.089V492.24v0.156v4.207
	C0.146,505.105,7.04,512,15.544,512h480.912c8.504,0,15.398-6.895,15.398-15.398v-4.362V293.423
	C511.854,284.919,504.96,278.025,496.456,278.025z M481.054,142.121v30.2l-42.144,34.847v-65.046H481.054z M103.886,30.796h304.229
	v201.835L256,358.406L103.886,232.631L103.886,30.796L103.886,30.796z M30.942,212.277l47.704,39.443
	c0.011,0.009,0.02,0.018,0.031,0.028l101.781,84.155L30.942,459.526C30.942,459.526,30.942,212.277,30.942,212.277z M30.946,142.121
	H73.09v65.046l-42.144-34.847C30.946,172.321,30.946,142.121,30.946,142.121z M53.055,481.204l151.566-125.321l41.566,34.368
	c2.847,2.353,6.328,3.531,9.811,3.531c3.483,0,6.964-1.178,9.811-3.531l41.566-34.368l151.566,125.321H53.055z"/>
</svg>