<svg xmlns="http://www.w3.org/2000/svg" version="1.1" xmlns:xlink="http://www.w3.org/1999/xlink" xmlns:svgjs="http://svgjs.dev/svgjs" width="1500" height="1500" viewBox="0 0 1500 1500"><rect width="1500" height="1500" fill="#ffffff"></rect><g transform="matrix(0.6666666666666666,0,0,0.6666666666666666,249.08769447815,537.9115698927651)"><svg viewBox="0 0 396 168" data-background-color="#ffffff" preserveAspectRatio="xMidYMid meet" height="636" width="1500" xmlns="http://www.w3.org/2000/svg" xmlns:xlink="http://www.w3.org/1999/xlink"><g id="tight-bounds" transform="matrix(1,0,0,1,0.3612729866525797,0.035038344376076225)"><svg viewBox="0 0 395.52 167.92992331124785" height="167.92992331124785" width="395.52"><g><svg viewBox="0 0 495.97774539383437 210.58228344476186" height="167.92992331124785" width="395.52"><g><rect width="8.644897672234558" height="210.58228344476186" x="69.18222554297529" y="0" fill="#2257bf" opacity="1" stroke-width="0" stroke="transparent" fill-opacity="1" class="rect-yte-0" data-fill-palette-color="primary" rx="1%" id="yte-0" data-palette-color="#2257bf"></rect></g><g transform="matrix(1,0,0,1,100.45774539383434,17.54852362039682)"><svg viewBox="0 0 395.52000000000004 175.4852362039682" height="175.4852362039682" width="395.52000000000004"><g id="textblocktransform"><svg viewBox="0 0 395.52000000000004 175.4852362039682" height="175.4852362039682" width="395.52000000000004" id="textblock"><g><svg viewBox="0 0 395.52000000000004 95.86159617506436" height="95.86159617506436" width="395.52000000000004"><g transform="matrix(1,0,0,1,0,0)"><svg width="395.52000000000004" viewBox="4.25 -32.35 135.94 32.95" height="95.86159617506436" data-palette-color="#2257bf"><path d="M27.85-0.05L27.9 0 22.35 0 7.25-25.6 7.25 0 4.25 0 4.25-30.65 9.7-30.65 24.85-5.1 24.85-30.65 27.85-30.65 27.85-0.05ZM54.85-11.7L39.35-11.7 39.35-11.6Q39.35-6.3 40.62-4.1 41.9-1.9 45-1.9L45-1.9Q50.1-1.9 50.35-7.15L50.35-7.15 54.5-6.95Q54.15-3.45 51.95-1.43 49.75 0.6 44.85 0.6L44.85 0.6Q39.2 0.6 36.75-2.53 34.3-5.65 34.3-12L34.3-12Q34.3-17.7 36.62-21.15 38.95-24.6 44.8-24.6L44.8-24.6Q50.45-24.6 52.65-21.18 54.85-17.75 54.85-12.2L54.85-12.2 54.85-11.7ZM44.7-22.1Q42.05-22.1 40.85-20.15 39.65-18.2 39.4-14.2L39.4-14.2 49.95-14.2Q49.8-18.1 48.62-20.1 47.45-22.1 44.7-22.1L44.7-22.1ZM78.64 0L73.05 0 66.84-9.35 59.95 0 56.95 0 65.59-11.3 57.24-24 62.84-24 68.75-15 75.34-24 78.34-24 70-13.05 78.64 0ZM93.39-3.15L94.04-0.85Q91.39 0.6 88.94 0.6L88.94 0.6Q86.44 0.6 85.22-0.33 83.99-1.25 83.69-2.55 83.39-3.85 83.39-5.75L83.39-5.75 83.39-21.45 79.49-21.45 79.49-24 83.39-24 83.39-27.9 88.49-29.8 88.49-24 93.59-24 93.59-21.45 88.49-21.45 88.49-5.15Q88.49-3.5 88.92-2.88 89.34-2.25 90.34-2.25L90.34-2.25Q91.74-2.25 93.39-3.15L93.39-3.15ZM103.04-2.55L115.79-2.55 115.79 0 97.94 0 97.94-30.65 114.89-30.65 114.89-28.1 103.04-28.1 103.04-16.95 113.84-16.95 113.84-14.3 103.04-14.3 103.04-2.55ZM135.14-31.7L140.19-32.35 140.19 0 137.14 0 135.69-2.7Q132.94 0.6 128.69 0.6L128.69 0.6Q119.64 0.6 119.64-11.8L119.64-11.8Q119.64-24.6 129.29-24.6L129.29-24.6Q132.34-24.6 135.14-22.8L135.14-22.8 135.14-31.7ZM130.09-1.9Q133.09-1.9 135.14-4.7L135.14-4.7 135.14-20.25Q132.99-21.85 130.49-21.85L130.49-21.85Q127.64-21.85 126.16-19.3 124.69-16.75 124.69-11.8L124.69-11.8Q124.69-6.9 126.06-4.4 127.44-1.9 130.09-1.9L130.09-1.9Z" opacity="1" transform="matrix(1,0,0,1,0,0)" fill="#2257bf" class="wordmark-text-0" data-fill-palette-color="primary" id="text-0"></path></svg></g></svg></g><g transform="matrix(1,0,0,1,0,118.49221835368886)"><svg viewBox="0 0 232.20979200000002 56.99301785027934" height="56.99301785027934" width="232.20979200000002"><g transform="matrix(1,0,0,1,0,0)"><svg width="232.20979200000002" viewBox="1.95 -32.35 134.24 32.95" height="56.99301785027934" data-palette-color="#a9a8a8"><path d="M13.8-13.8Q17.5-12.8 19.18-11.25 20.85-9.7 20.85-6.75L20.85-6.75Q20.85-3.35 18.48-1.38 16.1 0.6 11.75 0.6L11.75 0.6Q7.05 0.6 4.75-1.33 2.45-3.25 1.95-6.9L1.95-6.9 6.1-7.4Q6.35-4.8 7.75-3.35 9.15-1.9 11.75-1.9L11.75-1.9Q13.85-1.9 15.2-3.05 16.55-4.2 16.55-5.7L16.55-5.7Q16.55-7.2 15.35-8.1 14.15-9 11.4-9.7L11.4-9.7 9-10.4Q5.8-11.25 4.1-12.9 2.4-14.55 2.4-17.55L2.4-17.55Q2.4-20.8 4.8-22.7 7.2-24.6 11.45-24.6L11.45-24.6Q15.9-24.6 18.05-22.73 20.2-20.85 20.65-17.25L20.65-17.25 16.5-16.9Q16.25-19.35 14.98-20.73 13.7-22.1 11.45-22.1L11.45-22.1Q9.1-22.1 7.9-21.15 6.7-20.2 6.7-18.65L6.7-18.65Q6.7-16.95 7.88-16.05 9.05-15.15 11.6-14.45L11.6-14.45 13.8-13.8ZM30.15-12Q30.15-7 31.27-4.45 32.4-1.9 35.5-1.9L35.5-1.9Q38.05-1.9 39.17-3.45 40.3-5 40.4-8.15L40.4-8.15 44.7-8Q44.4-3.8 42.3-1.6 40.2 0.6 35.4 0.6L35.4 0.6Q29.5 0.6 27.3-2.83 25.1-6.25 25.1-12L25.1-12Q25.1-17.8 27.3-21.2 29.5-24.6 35.4-24.6L35.4-24.6Q40.2-24.6 42.27-22.53 44.35-20.45 44.65-16.45L44.65-16.45 40.4-15.9Q40.3-19.05 39.17-20.58 38.05-22.1 35.5-22.1L35.5-22.1Q32.4-22.1 31.27-19.58 30.15-17.05 30.15-12L30.15-12ZM63.45-24.6Q67.4-24.6 69.27-22.6 71.15-20.6 71.15-16.95L71.15-16.95 71.15 0 66.09 0 66.09-16.55Q66.09-19.2 65.15-20.5 64.2-21.8 62.15-21.8L62.15-21.8Q59.05-21.8 56.15-19.5L56.15-19.5 56.15 0 51.1 0 51.1-31.7 56.15-32.35 56.15-22.1Q57.75-23.25 59.65-23.93 61.55-24.6 63.45-24.6L63.45-24.6ZM87.84 0.6Q81.79 0.6 79.42-2.88 77.04-6.35 77.04-12L77.04-12Q77.04-17.7 79.42-21.15 81.79-24.6 87.84-24.6L87.84-24.6Q93.84-24.6 96.24-21.13 98.64-17.65 98.64-12L98.64-12Q98.64 0.6 87.84 0.6L87.84 0.6ZM87.84-1.9Q91.14-1.9 92.37-4.55 93.59-7.2 93.59-12L93.59-12Q93.59-16.85 92.39-19.48 91.19-22.1 87.84-22.1L87.84-22.1Q84.49-22.1 83.29-19.5 82.09-16.9 82.09-12L82.09-12Q82.09-7.15 83.29-4.53 84.49-1.9 87.84-1.9L87.84-1.9ZM113.99 0.6Q107.94 0.6 105.57-2.88 103.19-6.35 103.19-12L103.19-12Q103.19-17.7 105.57-21.15 107.94-24.6 113.99-24.6L113.99-24.6Q119.99-24.6 122.39-21.13 124.79-17.65 124.79-12L124.79-12Q124.79 0.6 113.99 0.6L113.99 0.6ZM113.99-1.9Q117.29-1.9 118.52-4.55 119.74-7.2 119.74-12L119.74-12Q119.74-16.85 118.54-19.48 117.34-22.1 113.99-22.1L113.99-22.1Q110.64-22.1 109.44-19.5 108.24-16.9 108.24-12L108.24-12Q108.24-7.15 109.44-4.53 110.64-1.9 113.99-1.9L113.99-1.9ZM136.19-32.35L136.19 0 131.14 0 131.14-31.7 136.19-32.35Z" opacity="1" transform="matrix(1,0,0,1,0,0)" fill="#a9a8a8" class="slogan-text-1" data-fill-palette-color="secondary" id="text-1"></path></svg></g></svg></g></svg></g></svg></g><g transform="matrix(1,0,0,1,0,9.495506130996716)"><svg viewBox="0 0 46.55160336435079 191.59127118276842" height="191.59127118276842" width="46.55160336435079"><g><svg xmlns="http://www.w3.org/2000/svg" xmlns:xlink="http://www.w3.org/1999/xlink" version="1.1" x="0" y="0" viewBox="39.066844086168686 5.000155261812102 21.86748775106885 89.99947312253715" enable-background="new 0 0 100 100" xml:space="preserve" height="191.59127118276842" width="46.55160336435079" class="icon-icon-0" data-fill-palette-color="accent" id="icon-0"><path d="M60.915 50.354A3.2 3.2 0 0 0 60.878 49.405 3 3 0 0 0 60.76 48.937C60.751 48.909 60.751 48.89 60.741 48.866L45.58 7.212A3.356 3.356 0 0 0 41.276 5.203 3.355 3.355 0 0 0 39.27 9.506L54.007 50 39.27 90.493A3.36 3.36 0 0 0 41.276 94.797 3.36 3.36 0 0 0 45.58 92.788L60.741 51.135C60.751 51.111 60.751 51.085 60.76 51.064 60.813 50.906 60.85 50.751 60.878 50.597 60.894 50.515 60.905 50.435 60.915 50.354" fill="#2257bf" data-fill-palette-color="accent"></path></svg></g></svg></g></svg></g><defs></defs></svg><rect width="395.52" height="167.92992331124785" fill="none" stroke="none" visibility="hidden"></rect></g></svg></g></svg>